# xmcd CD database file
#
# Track frame offsets:
#	150
#	21150
#	43385
#	70480
#	89380
#	117060
#	147722
#	165497
#	189327
#	217500
#	242125
#	265172
#
# Disc length: 3790 seconds
#
# Revision: 0
# Processed by: cddbd v1.5.1PL0 Copyright (c) Steve Scherf et al.
# Submitted via: CDex 1.51
#
DISCID=a90ecc0c
DTITLE=CASSANDRA WILSON - Traveling Miles
DYEAR=1999
DGENRE=Jazz
TTITLE0=Run The Voodoo Down
TTITLE1=Traveling Miles
TTITLE2=Right Here, Right Now
TTITLE3=Time After Time
TTITLE4=When The Sun Goes Down
TTITLE5=Seven Steps
TTITLE6=Someday My Prince Will Come
TTITLE7=Never Broken (Esp)
TTITLE8=Resurrection Blues (Tutu)
TTITLE9=Sky And Sea (Blue In Green)
TTITLE10=Piper
TTITLE11=Voodoo (Reprise)
EXTD=YEAR: 1999
EXTT0=
EXTT1=
EXTT2=
EXTT3=
EXTT4=
EXTT5=
EXTT6=
EXTT7=
EXTT8=
EXTT9=
EXTT10=
EXTT11=
PLAYORDER=
